<svg width="61" height="87" viewBox="0 0 61 87" fill="none" xmlns="http://www.w3.org/2000/svg">
<path d="M30.0805 53.4039L16.4683 30.3853C12.7627 24.119 13.7906 16.1358 18.9627 11.0125V11.0125C25.1298 4.90383 35.0583 4.87626 41.2592 10.9506L41.5182 11.2042C46.6747 16.2556 47.8821 24.1026 44.4826 30.4704L33.752 50.5702V29.5356L37.1383 25.2088C39.5846 22.0831 39.303 17.6209 36.4832 14.8276V14.8276C33.6588 12.0297 29.1853 11.7946 26.0831 14.2809L25.723 14.5696C22.1573 17.4274 21.5544 22.622 24.3707 26.2205L26.9653 29.5356V38.0367L21.8474 30.8435" stroke="white" stroke-width="2.96688" stroke-linecap="round" stroke-linejoin="round"/>
<path d="M4.85596 68.5566V75.6771C4.85596 76.1596 4.96491 76.5098 5.18281 76.7277C5.41627 76.93 5.80536 77.0312 6.3501 77.0312H7.98432V79.249H5.88318C4.68476 79.249 3.76648 78.9689 3.12836 78.4086C2.49024 77.8483 2.17118 76.9378 2.17118 75.6771V68.5566H0.653687V66.3854H2.17118V63.187H4.85596V66.3854H7.98432V68.5566H4.85596ZM13.0987 68.2531C13.4878 67.5994 14.0014 67.0936 14.6396 66.7356C15.2933 66.362 16.0637 66.1753 16.9508 66.1753V68.9301H16.2738C15.231 68.9301 14.4372 69.1947 13.8925 69.7239C13.3633 70.253 13.0987 71.1713 13.0987 72.4787V79.249H10.4373V66.3854H13.0987V68.2531Z" fill="black"/>
<path d="M31.1869 72.502C31.1869 72.9845 31.1558 73.4203 31.0936 73.8094H21.2649C21.3427 74.8366 21.724 75.6615 22.4088 76.2841C23.0937 76.9066 23.9341 77.2179 24.9302 77.2179C26.3621 77.2179 27.3738 76.6187 27.9652 75.4203H30.8367C30.4476 76.6031 29.7395 77.5759 28.7123 78.3385C27.7006 79.0856 26.4399 79.4591 24.9302 79.4591C23.7007 79.4591 22.5956 79.1868 21.6151 78.642C20.6501 78.0817 19.8875 77.3035 19.3272 76.3074C18.7824 75.2958 18.5101 74.1285 18.5101 72.8055C18.5101 71.4826 18.7747 70.3231 19.3038 69.327C19.8486 68.3153 20.6034 67.5371 21.5684 66.9924C22.5489 66.4476 23.6695 66.1753 24.9302 66.1753C26.1442 66.1753 27.2259 66.4399 28.1753 66.969C29.1247 67.4982 29.864 68.2453 30.3932 69.2103C30.9223 70.1597 31.1869 71.2569 31.1869 72.502ZM28.4088 71.6616C28.3932 70.6811 28.043 69.8951 27.3582 69.3036C26.6734 68.7122 25.8251 68.4165 24.8135 68.4165C23.8952 68.4165 23.1092 68.7122 22.4555 69.3036C21.8019 69.8795 21.4128 70.6655 21.2882 71.6616H28.4088ZM32.9189 72.8055C32.9189 71.4826 33.1835 70.3231 33.7127 69.327C34.2574 68.3153 35.0045 67.5371 35.9539 66.9924C36.9033 66.4476 37.9928 66.1753 39.2223 66.1753C40.7787 66.1753 42.0628 66.5488 43.0744 67.2959C44.1016 68.0274 44.7942 69.078 45.1522 70.4476H42.2806C42.0472 69.8095 41.6737 69.3114 41.16 68.9535C40.6464 68.5955 40.0005 68.4165 39.2223 68.4165C38.1328 68.4165 37.2613 68.8056 36.6076 69.5838C35.9695 70.3464 35.6504 71.4203 35.6504 72.8055C35.6504 74.1907 35.9695 75.2724 36.6076 76.0506C37.2613 76.8288 38.1328 77.2179 39.2223 77.2179C40.7632 77.2179 41.7826 76.5409 42.2806 75.1868H45.1522C44.7787 76.4942 44.0783 77.537 43.0511 78.3152C42.0238 79.0778 40.7476 79.4591 39.2223 79.4591C37.9928 79.4591 36.9033 79.1868 35.9539 78.642C35.0045 78.0817 34.2574 77.3035 33.7127 76.3074C33.1835 75.2958 32.9189 74.1285 32.9189 72.8055ZM53.3842 79.4591C52.1702 79.4591 51.073 79.1868 50.0924 78.642C49.1119 78.0817 48.3415 77.3035 47.7812 76.3074C47.2209 75.2958 46.9407 74.1285 46.9407 72.8055C46.9407 71.4982 47.2287 70.3386 47.8045 69.327C48.3804 68.3153 49.1664 67.5371 50.1625 66.9924C51.1586 66.4476 52.2714 66.1753 53.5009 66.1753C54.7305 66.1753 55.8433 66.4476 56.8394 66.9924C57.8355 67.5371 58.6215 68.3153 59.1974 69.327C59.7732 70.3386 60.0612 71.4982 60.0612 72.8055C60.0612 74.1129 59.7654 75.2724 59.174 76.2841C58.5826 77.2957 57.7733 78.0817 56.746 78.642C55.7344 79.1868 54.6138 79.4591 53.3842 79.4591ZM53.3842 77.1479C54.069 77.1479 54.7071 76.9845 55.2986 76.6576C55.9056 76.3308 56.3958 75.8405 56.7694 75.1868C57.1429 74.5331 57.3297 73.7394 57.3297 72.8055C57.3297 71.8717 57.1507 71.0857 56.7927 70.4476C56.4347 69.7939 55.96 69.3036 55.3686 68.9768C54.7772 68.65 54.1391 68.4865 53.4542 68.4865C52.7694 68.4865 52.1313 68.65 51.5399 68.9768C50.964 69.3036 50.5049 69.7939 50.1625 70.4476C49.8201 71.0857 49.6489 71.8717 49.6489 72.8055C49.6489 74.1907 49.999 75.2646 50.6994 76.0273C51.4154 76.7744 52.3103 77.1479 53.3842 77.1479Z" fill="white"/>
</svg>
