<svg width="43" height="58" viewBox="0 0 43 58" fill="none" xmlns="http://www.w3.org/2000/svg">
<path d="M20.425 36L11.2489 20.483C8.75091 16.2588 9.44384 10.8772 12.9304 7.42364V7.42364C17.0877 3.30571 23.7806 3.28712 27.9607 7.38189L28.1352 7.55287C31.6113 10.958 32.4252 16.2477 30.1336 20.5403L22.9 34.0898V19.9102L25.1827 16.9935C26.8318 14.8864 26.642 11.8784 24.7411 9.99539V9.99539C22.8371 8.10934 19.8215 7.95083 17.7304 9.62688L17.4875 9.82148C15.0839 11.748 14.6775 15.2497 16.576 17.6755L18.325 19.9102V25.6408L14.875 20.7918" stroke="#5DAC6F" stroke-width="2" stroke-linecap="round" stroke-linejoin="round"/>
<path d="M3.42096 46.7102V51.5102C3.42096 51.8354 3.49441 52.0715 3.64129 52.2184C3.79867 52.3548 4.06096 52.4229 4.42818 52.4229H5.52982V53.918H4.11342C3.30555 53.918 2.68654 53.7292 2.25637 53.3515C1.82621 52.9738 1.61113 52.36 1.61113 51.5102V46.7102H0.588178V45.2466H1.61113V43.0905H3.42096V45.2466H5.52982V46.7102H3.42096ZM8.97748 46.5056C9.23978 46.0649 9.58601 45.7239 10.0162 45.4826C10.4568 45.2308 10.9762 45.1049 11.5742 45.1049V46.962H11.1178C10.4149 46.962 9.87978 47.1403 9.51256 47.497C9.15584 47.8538 8.97748 48.4728 8.97748 49.3541V53.918H7.18338V45.2466H8.97748V46.5056Z" fill="black"/>
<path d="M21.1709 49.3698C21.1709 49.6951 21.1499 49.9888 21.1079 50.2511H14.4824C14.5348 50.9436 14.7919 51.4997 15.2535 51.9193C15.7151 52.339 16.2817 52.5488 16.9532 52.5488C17.9184 52.5488 18.6004 52.1449 18.9991 51.337H20.9348C20.6725 52.1344 20.1951 52.7902 19.5027 53.3043C18.8207 53.8079 17.9709 54.0597 16.9532 54.0597C16.1243 54.0597 15.3794 53.8761 14.7184 53.5088C14.0679 53.1311 13.5538 52.6066 13.1761 51.9351C12.8089 51.2531 12.6253 50.4662 12.6253 49.5744C12.6253 48.6826 12.8037 47.901 13.1604 47.2295C13.5276 46.5475 14.0365 46.0229 14.6869 45.6557C15.3479 45.2885 16.1033 45.1049 16.9532 45.1049C17.7715 45.1049 18.5007 45.2833 19.1407 45.64C19.7807 45.9967 20.2791 46.5003 20.6358 47.1508C20.9925 47.7908 21.1709 48.5305 21.1709 49.3698ZM19.2981 48.8033C19.2876 48.1423 19.0515 47.6125 18.5899 47.2138C18.1283 46.8151 17.5565 46.6157 16.8745 46.6157C16.2555 46.6157 15.7256 46.8151 15.285 47.2138C14.8443 47.602 14.582 48.1318 14.4981 48.8033H19.2981ZM22.3384 49.5744C22.3384 48.6826 22.5168 47.901 22.8735 47.2295C23.2407 46.5475 23.7443 46.0229 24.3843 45.6557C25.0243 45.2885 25.7588 45.1049 26.5876 45.1049C27.6368 45.1049 28.5024 45.3567 29.1843 45.8603C29.8768 46.3534 30.3437 47.0616 30.585 47.9849H28.6492C28.4919 47.5548 28.2401 47.219 27.8938 46.9777C27.5476 46.7364 27.1122 46.6157 26.5876 46.6157C25.8532 46.6157 25.2656 46.878 24.825 47.4026C24.3948 47.9167 24.1797 48.6407 24.1797 49.5744C24.1797 50.5082 24.3948 51.2374 24.825 51.762C25.2656 52.2866 25.8532 52.5488 26.5876 52.5488C27.6263 52.5488 28.3135 52.0925 28.6492 51.1797H30.585C30.3332 52.061 29.861 52.7639 29.1686 53.2885C28.4761 53.8026 27.6158 54.0597 26.5876 54.0597C25.7588 54.0597 25.0243 53.8761 24.3843 53.5088C23.7443 53.1311 23.2407 52.6066 22.8735 51.9351C22.5168 51.2531 22.3384 50.4662 22.3384 49.5744ZM36.1342 54.0597C35.3159 54.0597 34.5762 53.8761 33.9152 53.5088C33.2542 53.1311 32.7349 52.6066 32.3572 51.9351C31.9795 51.2531 31.7906 50.4662 31.7906 49.5744C31.7906 48.6931 31.9847 47.9115 32.3729 47.2295C32.7611 46.5475 33.291 46.0229 33.9624 45.6557C34.6339 45.2885 35.3841 45.1049 36.2129 45.1049C37.0418 45.1049 37.7919 45.2885 38.4634 45.6557C39.1349 46.0229 39.6647 46.5475 40.0529 47.2295C40.4411 47.9115 40.6352 48.6931 40.6352 49.5744C40.6352 50.4557 40.4359 51.2374 40.0372 51.9193C39.6385 52.6013 39.0929 53.1311 38.4005 53.5088C37.7185 53.8761 36.9631 54.0597 36.1342 54.0597ZM36.1342 52.5016C36.5959 52.5016 37.026 52.3915 37.4247 52.1711C37.8339 51.9508 38.1644 51.6203 38.4162 51.1797C38.668 50.739 38.7939 50.2039 38.7939 49.5744C38.7939 48.9449 38.6733 48.4151 38.4319 47.9849C38.1906 47.5443 37.8706 47.2138 37.4719 46.9934C37.0733 46.7731 36.6431 46.6629 36.1815 46.6629C35.7198 46.6629 35.2897 46.7731 34.891 46.9934C34.5028 47.2138 34.1933 47.5443 33.9624 47.9849C33.7316 48.4151 33.6162 48.9449 33.6162 49.5744C33.6162 50.5082 33.8523 51.2321 34.3244 51.7462C34.807 52.2498 35.4103 52.5016 36.1342 52.5016Z" fill="#5DAC6F"/>
</svg>
